<?xml version="1.0" standalone="no"?>
<!DOCTYPE svg PUBLIC "-//W3C//DTD SVG 1.1//EN" "http://www.w3.org/Graphics/SVG/1.1/DTD/svg11.dtd" >
<svg xmlns="http://www.w3.org/2000/svg">
<metadata>
Created by FontForge 20120731 at Wed Jul 29 11:06:54 2015
 By Ads
</metadata>
<defs>
<font id="iconfont" horiz-adv-x="1024" >
  <font-face 
    font-family="iconfont"
    font-weight="500"
    font-stretch="normal"
    units-per-em="1024"
    panose-1="2 0 6 3 0 0 0 0 0 0"
    ascent="812"
    descent="-212"
    x-height="792"
    bbox="0 -218 1024 810"
    underline-thickness="50"
    underline-position="-100"
    unicode-range="U+0078-E628"
  />
<missing-glyph horiz-adv-x="374" 
d="M34 0v682h272v-682h-272zM68 34h204v614h-204v-614z" />
    <glyph glyph-name=".notdef" horiz-adv-x="374" 
d="M34 0v682h272v-682h-272zM68 34h204v614h-204v-614z" />
    <glyph glyph-name=".null" horiz-adv-x="0" 
 />
    <glyph glyph-name="nonmarkingreturn" horiz-adv-x="341" 
 />
    <glyph glyph-name="x" unicode="x" horiz-adv-x="1001" 
d="M281 543q-27 -1 -53 -1h-83q-18 0 -36.5 -6t-32.5 -18.5t-23 -32t-9 -45.5v-76h912v41q0 16 -0.5 30t-0.5 18q0 13 -5 29t-17 29.5t-31.5 22.5t-49.5 9h-133v-97h-438v97zM955 310v-52q0 -23 0.5 -52t0.5 -58t-10.5 -47.5t-26 -30t-33 -16t-31.5 -4.5q-14 -1 -29.5 -0.5
t-29.5 0.5h-32l-45 128h-439l-44 -128h-29h-34q-20 0 -45 1q-25 0 -41 9.5t-25.5 23t-13.5 29.5t-4 30v167h911zM163 247q-12 0 -21 -8.5t-9 -21.5t9 -21.5t21 -8.5q13 0 22 8.5t9 21.5t-9 21.5t-22 8.5zM316 123q-8 -26 -14 -48q-5 -19 -10.5 -37t-7.5 -25t-3 -15t1 -14.5
t9.5 -10.5t21.5 -4h37h67h81h80h64h36q23 0 34 12t2 38q-5 13 -9.5 30.5t-9.5 34.5q-5 19 -11 39h-368zM336 498v228q0 11 2.5 23t10 21.5t20.5 15.5t34 6h188q31 0 51.5 -14.5t20.5 -52.5v-227h-327z" />
    <glyph glyph-name="uniE600" unicode="&#xe600;" 
d="M954 -114l-284 284q28 31 47.5 67.5t30 78t10.5 85.5q0 70 -27.5 134t-74 110.5t-110.5 74t-134 27.5q-95 0 -174.5 -46.5t-126 -126t-46.5 -174t46.5 -174t126 -126t174.5 -46.5q131 0 229 87l284 -284q6 -5 14.5 -5t14.5 6t6 14.5t-6 13.5zM106 401q0 126 89.5 215.5
t216 89.5t216 -89.5t89.5 -215.5q0 -83 -41 -153.5t-111.5 -111.5t-153 -41t-153 41t-111.5 111.5t-41 153.5z" />
    <glyph glyph-name="uniE601" unicode="&#xe601;" 
d="M512 748q-61 0 -119 -16t-107 -45t-90.5 -70.5t-70.5 -90.5t-45 -107t-16 -119q0 -73 22.5 -141.5t64 -123.5t97 -96.5t123.5 -64.5t141 -23q91 0 174 35.5t143.5 96t96 143.5t35.5 174t-35.5 174t-96 143t-143.5 95.5t-174 35.5zM512 -93q-106 0 -196.5 52.5t-143 143
t-52.5 197.5q0 79 31 152t83.5 125.5t125.5 83.5t152 31q107 0 197.5 -52.5t143 -143t52.5 -196.5q0 -64 -20 -124t-56.5 -108t-84.5 -84.5t-108 -56.5t-124 -20zM737 328h-381l120 120q4 4 6 9t2 10.5t-2 11t-6 9.5q-8 8 -19.5 8t-20.5 -8l-168 -169q-8 -8 -8 -19.5
t8 -19.5l168 -168q9 -9 20 -9q6 0 11 2.5t9 6.5q8 8 8 19.5t-8 19.5l-120 121h381q11 0 19.5 8t8.5 19.5t-8.5 20t-19.5 8.5zM737 328z" />
    <glyph glyph-name="uniE602" unicode="&#xe602;" 
d="M854 526l-34 -664q-1 -8 -4.5 -16t-8.5 -14t-11.5 -11t-14.5 -7.5t-16 -2.5h-475q-22 0 -38 15t-17 36v1l-35 663q0 6 2.5 10.5t7 7.5t9.5 4q9 0 15 -5.5t7 -14.5l34 -663q1 -5 5.5 -9t9.5 -4h475q5 0 9 4t5 9l34 663q1 9 7.5 14.5t14.5 5t14 -6.5t5 -15zM936 670.5
q0 -8.5 -6 -14.5t-14 -6h-266q-9 0 -15 6t-6 14v62q0 8 -6 14t-14 6h-164q-4 0 -7.5 -1.5t-6.5 -4.5t-4.5 -6.5t-1.5 -7.5v-62q0 -3 -1 -6t-3 -5.5t-4.5 -4.5t-5.5 -3t-7 -1h-265q-9 0 -15 6t-6 14.5t6 14.5t15 6h245v41q0 16 8 30.5t22.5 22.5t30.5 8h164q17 0 31 -8
t22 -22.5t8 -30.5v-41h246q8 0 14 -6t6 -14.5zM640 507v-573q0 -8 -6 -14t-14.5 -6t-14.5 6t-6 14v573q0 8 6 14t14 6q6 0 10.5 -2.5t7.5 -7.5t3 -10zM456 507v-573q0 -8 -6 -14t-15 -6q-4 0 -8 1.5t-6.5 4t-4 6.5t-1.5 8v573q0 4 1.5 7.5t4 6.5t6.5 4.5t8 1.5
q6 0 10.5 -2.5t7.5 -7.5t3 -10z" />
    <glyph glyph-name="uniE603" unicode="&#xe603;" 
d="M764 234l-222 -223q-6 -6 -14.5 -6t-14.5 6l-223 223q-6 6 -6 14.5t6 14.5q4 4 9 5.5t10.5 0t9.5 -5.5l188 -188v604q0 8 6 14t14.5 6t14.5 -6t6 -14v-604l187 188q6 6 14.5 6t14.5 -6t6 -14.5t-6 -14.5zM843 -46q0 -9 -6 -15t-15 -6h-590q-3 0 -5 1l-4 2l-4 2
q-2 1 -3.5 3t-2.5 4t-1.5 4.5t-0.5 4.5q0 8 6 14t15 6h590q17 0 20 -15q1 -3 1 -5z" />
    <glyph glyph-name="uniE604" unicode="&#xe604;" 
d="M959 457h-14v102q0 17 -8.5 32t-23.5 23.5t-32 8.5h-400v58q0 27 -18.5 45.5t-45.5 18.5h-352q-17 0 -32 -8.5t-23.5 -23.5t-8.5 -32v-762q0 -17 8.5 -32t23.5 -23.5t32 -8.5h816q27 0 45.5 18.5t18.5 45.5l78 474q0 13 -5 25t-13.5 20.5t-20.5 13.5t-25 5zM49 649
q0 27 10.5 37.5t37.5 10.5h288q13 0 22 -2.5t15 -8.5t8.5 -15t2.5 -22v-74h2h46h368q18 0 28.5 -4.5t15 -15t4.5 -28.5v-70h-754q-17 0 -32 -8.5t-23.5 -23.5t-8.5 -32l-30 -195v451zM897 -49q0 -11 -1.5 -18.5t-5 -13.5t-9.5 -9.5t-13.5 -5t-18.5 -1.5h-752q-26 0 -37 10.5
t-11 37.5l78 410q0 27 11 37.5t37 10.5h752q27 0 37.5 -10.5t10.5 -37.5z" />
    <glyph glyph-name="uniE605" unicode="&#xe605;" 
d="M727 551h-378q-9 0 -15.5 6.5t-6.5 15.5t6.5 15t15.5 6h378q9 0 15.5 -6t6.5 -15q0 -5 -1.5 -9t-4.5 -7t-7 -4.5t-9 -1.5zM727 434h-378q-4 0 -7 1t-6 3t-5 4.5t-3 6t-1 6.5q0 9 6.5 15.5t15.5 6.5h378q6 0 11 -3t8 -8t3 -11t-3 -11t-8 -7.5t-11 -2.5zM609 332h-260
q-9 0 -15.5 6t-6.5 15q0 4 1 7.5t3 6t5 4.5t6 3t7 1h260q9 0 15.5 -6.5t6.5 -15.5q0 -4 -2 -8t-4.5 -7t-6.5 -4.5t-9 -1.5zM866 647q0 36 -26 62t-62 26h-565v-421q-46 -79 -65 -108q-21 -33 -31 -53t-13 -42q-8 -41 8 -101q28 -103 29 -118q2 -33 1 -57h6q2 0 5 -1h6
q3 -1 6 -1t6 -0.5t5 -0.5t3.5 -0.5t2.5 -0.5h1q0 4 0.5 11t0.5 24t-1 28q-2 13 -19 79.5t-20 81.5q-7 49 8 78q9 19 61 99v-157l119 116l54 53q2 1 4.5 2.5t9.5 3.5t12 -2q8 -6 9 -14.5t-1 -11.5q-4 -14 -19 -34q-11 -14 -20 -27t-16 -24q-7 -10 -13.5 -23.5t-8.5 -25.5
q-3 -22 3 -53q1 -4 2.5 -10.5t3.5 -14.5l4 -16q2 -8 4 -15.5t3.5 -14t2.5 -9.5l1 -4h81q-11 -20 -16 -47q-3 -15 -4.5 -30.5t-1.5 -23.5v-8h39q2 39 6 57q3 15 10 29.5t16 22.5h369v696zM823 -5h-420l-15 57q0 2 -0.5 5t-1 11t1.5 13q2 8 9 21t12 22q11 16 35 46
q21 28 21 61q0 13 -4.5 23.5t-7.5 14.5t-11 13q-15 17 -43 15q-24 -2 -43 -19q-5 -5 -33 -32t-67 -65v512h516q14 0 25.5 -7t18 -18.5t6.5 -24.5v-648h1z" />
    <glyph glyph-name="uniE606" unicode="&#xe606;" 
d="M682 -147h-474q-40 0 -59 36q-7 15 -7 30v762q0 27 19.5 46.5t46.5 19.5h608q18 0 33 -9t24 -24t9 -33v-619zM208 703q-6 0 -11 -3t-8 -8t-3 -11v-762q0 -9 6.5 -15.5t15.5 -6.5h455l175 183v601q0 9 -6.5 15.5t-15.5 6.5h-608zM672 -147q-4 0 -8 1q-3 2 -5.5 4t-4 4.5
t-2.5 6t-1 6.5v151q0 28 19.5 47.5t46.5 19.5h143q7 0 12.5 -3.5t7.5 -9.5q6 -14 -4 -24l-188 -196q-6 -7 -16 -7zM717 49q-6 0 -11.5 -3t-8.5 -8t-3 -12v-96l115 119h-92zM356 178q-9 0 -15 6q-4 4 -5.5 10t0 11.5t5.5 9.5l311 312q4 4 10 5.5t11.5 0t9.5 -6t5.5 -10t0 -11
t-5.5 -9.5l-311 -312q-7 -6 -16 -6zM668 178q-9 0 -16 6l-311 312q-4 4 -5.5 9.5t0 11t5.5 10.5q3 3 7 4.5t8 1.5t8.5 -1.5t7.5 -4.5l311 -312q7 -6 7 -15t-7 -16q-3 -3 -7 -4.5t-8 -1.5z" />
    <glyph glyph-name="uniE607" unicode="&#xe607;" 
d="M648 513h-376q-9 0 -15.5 6.5t-6.5 15.5t6.5 15.5t15.5 6.5h376q9 0 15.5 -6.5t6.5 -15.5t-6.5 -15.5t-15.5 -6.5zM601 389h-329q-4 0 -7.5 1t-6 3t-4.5 4.5t-3 6t-1 6.5q0 9 6.5 15.5t15.5 6.5h329q9 0 15.5 -6.5t6.5 -15.5q0 -4 -2 -8t-5 -7t-7 -4.5t-8 -1.5zM511 267
h-239q-6 0 -11 3t-8 8t-3 11q0 9 6.5 15t15.5 6h239q9 0 15.5 -6t6.5 -15t-6.5 -15.5t-15.5 -6.5zM490 -145h-281q-27 0 -46.5 19.5t-19.5 46.5v758q0 17 9 32.5t24 24.5t33 9h604q27 0 46.5 -19.5t19.5 -46.5v-455q0 -9 -6.5 -15.5t-15.5 -6.5t-15 6.5t-6 15.5v455
q0 9 -7 15.5t-16 6.5h-604q-6 0 -11 -3t-8 -8t-3 -11v-758q0 -9 6.5 -15.5t15.5 -6.5h281q9 0 15.5 -6.5t6.5 -15.5t-6.5 -15.5t-15.5 -6.5zM664 -122q-76 0 -135.5 49t-80.5 129l-2 6l2 6q21 80 80.5 129t135.5 49q50 0 94 -22t76 -63t45 -94l2 -5l-2 -6
q-27 -103 -113 -151q-48 -27 -102 -27zM491 62q18 -58 63.5 -99.5t109 -41.5t109 41.5t63.5 99.5q-17 58 -62.5 99t-109.5 41q-91 0 -145 -81q-18 -28 -28 -59zM664 -36q-41 0 -69.5 29t-28.5 69t28.5 69t69 29t69 -29t28.5 -69q0 -26 -13 -48.5t-35.5 -36t-48.5 -13.5z
M664 116q-23 0 -38.5 -16t-15.5 -38q0 -15 7 -27.5t19.5 -19.5t27.5 -7q10 0 20 4.5t17.5 11.5t11.5 17t4 21q0 15 -7 27t-19.5 19.5t-26.5 7.5zM664 138z" />
    <glyph glyph-name="uniE608" unicode="&#xe608;" 
d="M819 -98h-614q-38 0 -64.5 26.5t-26.5 64.5v569q0 37 26.5 64t64.5 27h114v11q0 4 -0.5 9t-1 8.5t-0.5 7t1.5 5.5t4 3t7.5 1q14 0 24 -10t10 -24v-11h296v11q0 14 10 24t24 10q5 0 8 -1.5t4 -5t1 -7t-1 -10t-1 -10.5v-11h114q38 0 64.5 -27t26.5 -64v-569
q0 -38 -26.5 -64.5t-64.5 -26.5zM865 562q0 9 -4 17.5t-10 14.5t-14.5 9.5t-17.5 3.5h-114v-34q0 -7 -2.5 -13.5t-7 -11t-11 -7t-13.5 -2.5q-5 0 -8 1.5t-4 5t-0.5 7t1 10t0.5 10.5v34h-296v-34q0 -7 -2.5 -13.5t-7 -11t-11 -7t-13.5 -2.5q-5 0 -8 1.5t-4 5t-1 7t1 10
t1 10.5v34h-114q-19 0 -32.5 -13t-13.5 -32v-569q0 -19 13.5 -32.5t32.5 -13.5h614q19 0 32.5 13.5t13.5 32.5v569zM751 107h-478q-9 0 -16 6.5t-7 16t7 16t16 6.5h478q9 0 16 -6.5t7 -16t-7 -16t-16 -6.5zM751 220h-478q-9 0 -16 7t-7 16q0 6 3 11.5t8.5 8.5t11.5 3h478
q9 0 16 -6.5t7 -16.5q0 -4 -1.5 -7.5t-3.5 -6t-4.5 -4.5t-6 -3.5t-7.5 -1.5zM751 334h-478q-9 0 -16 6.5t-7 16.5q0 6 3 11.5t8.5 8.5t11.5 3h478q9 0 16 -7t7 -16.5t-7 -16t-16 -6.5z" />
    <glyph glyph-name="uniE609" unicode="&#xe609;" 
d="M933 84h-114v-114q0 -9 -6.5 -16t-16.5 -7q-6 0 -11 3t-8 8.5t-3 11.5v114h-114q-10 0 -16.5 6.5t-6.5 16t6.5 16t16.5 6.5h114v114q0 10 6.5 16.5t16 6.5t16 -6.5t6.5 -16.5v-114h114q5 0 9 -1.5t7 -4.5t5 -7.5t2 -8.5q0 -10 -7 -16.5t-16 -6.5zM774 493
q0 19 -13.5 32.5t-32.5 13.5h-250h-23h-45v23q0 19 -13.5 32t-32.5 13h-205q-19 0 -32 -13t-13 -32v-69v-45v-64v-95v-251q0 -12 6 -22.5t16.5 -16.5t22.5 -6h433v-46h-455q-29 0 -49 20t-20 49v432v68v68q0 29 20 49t49 20h250q18 0 34 -9.5t25 -25t9 -34.5h296
q28 0 48 -20t20 -48v-136h-45v113z" />
    <glyph glyph-name="uniE60A" unicode="&#xe60a;" 
d="M492 606h6h341q14 0 25.5 -5t19.5 -15t11 -24q1 -5 2 -13v-82v-5h3h5q2 0 4 -1q20 0 35 -12t19 -32l1 -14l-2 -15q-3 -19 -24 -142q-2 -15 -6.5 -42t-8 -49t-7.5 -42q-1 -11 -5.5 -37t-7.5 -45t-6 -37l-1 -3v-4t-0.5 -3.5t-1 -4t-1 -3.5t-1 -3.5t-1 -3.5t-1.5 -3.5
t-2 -2.5q-16 -24 -45 -26h-5h-706q-21 0 -36 11t-20 29q-1 3 -1.5 5.5t-0.5 5.5v6q-1 299 -1 662q0 24 16.5 40.5t41.5 16.5h304q16 0 29 -7.5t20.5 -20.5t7.5 -30v-44v-5zM553 420h-325q-9 0 -20 -2q-20 -3 -23 -23q0 -3 -1 -7v-6q-1 -4 -1 -6l-18 -93q-4 -19 -5 -28
q-30 -158 -41 -214q-5 -26 -2 -38q4 -20 22 -23q11 -2 20 -2h652q9 0 19 2q20 3 23 23q1 3 1.5 9.5t0.5 10.5q3 15 6 30.5t7 35.5t5.5 29.5t6.5 35.5t6 31q19 97 33 172q5 27 2 38q-5 20 -22 23q-6 1 -11 1.5t-10 0.5h-325zM450 565v62q0 9 -2 20q-3 19 -22 22q-11 2 -19 2
h-124h-124q-9 0 -20 -2q-19 -3 -22 -22q-1 -6 -1.5 -10.5t-0.5 -9.5v-382v-5q1 2 2 7q14 92 16 105q4 27 9 59q2 14 7 23q17 28 51 28h649h6v61q0 4 -0.5 8.5t-1.5 9.5q-3 19 -22 22q-12 2 -21 2h-354h-6zM513 338q-5 5 -12.5 5t-12.5 -5q-2 -3 -3.5 -6t-1.5 -7q0 -7 5 -12
l115 -115h-287q-7 0 -12.5 -5t-5.5 -12q0 -4 1.5 -7t4 -5.5t5.5 -4t7 -1.5h287l-115 -114q-2 -3 -3.5 -6.5t-1.5 -6.5t1.5 -6.5t3.5 -5.5q5 -5 12.5 -5t12.5 5l157 157z" />
    <glyph glyph-name="uniE60B" unicode="&#xe60b;" 
d="M714 329l-264 -265h-157l-1 158l271 271q18 19 45 19t45 -19l68 -68q11 -11 14 -29.5t-3 -36.5t-18 -30zM337 109l68 1l-68 67v-68zM653 403l-23 22q-9 10 -22.5 10t-22.5 -10l-203 -203l68 -67l203 203q9 9 9 22.5t-9 22.5z" />
    <glyph glyph-name="uniE60C" unicode="&#xe60c;" 
d="M809 718h-591q-30 0 -51 -21.5t-21 -51.5v-730q0 -29 21 -50.5t51 -21.5h497l167 172v630q0 30 -21.5 51.5t-51.5 21.5zM711 -90v68q0 8 4 15t11 10.5t15 3.5h62zM835 60h-89q-34 0 -58 -24t-24 -57v-86h-442q-12 0 -20.5 8.5t-8.5 20.5v714q0 5 2 10.5t6 9.5t9.5 6.5
t11.5 2.5h583q8 0 15 -4t11 -11t4 -14v-576zM266 487h383q10 0 17.5 7.5t7.5 17.5t-7.5 17.5t-17.5 7.5h-383q-10 0 -17 -7.5t-7 -17.5q0 -5 2 -9.5t5 -8t7.5 -5.5t9.5 -2zM267 417q-11 0 -18 -7.5t-7 -17.5q0 -5 2 -10t5 -8t8 -5t10 -2h326q10 0 17.5 7t7.5 18q0 6 -3.5 12
t-9 9.5t-12.5 3.5h-326zM715 296h-449q-6 0 -12 -3t-9 -9t-3 -12.5t3 -12.5t9 -9.5t12 -3.5h449q6 0 12 3.5t9 9.5t4 12q0 11 -7.5 18t-17.5 7z" />
    <glyph glyph-name="uniE60D" unicode="&#xe60d;" 
d="M334 570h490v-56h-490v56zM334 351h490v-56h-490v56zM334 132h238v-56h-238v56zM139 584h86v-84h-86v84zM139 365h86v-84h-86v84zM139 146h86v-84h-86v84zM500 -128h-426q-10 0 -14 7t-4 18v806q0 11 4 18t14 7h828q17 -2 18 -25v-466v-1q0 -11 8 -19t19.5 -8t19.5 8
t8 19v1v518v5q0 2 -1 4l-2 4q-1 2 -2 3.5t-3 3t-3.5 3t-3.5 2.5t-4 1.5t-4.5 1t-4.5 0.5h-918q-12 0 -20.5 -8t-8.5 -20v-910q0 -12 8.5 -20t20.5 -8h471q11 0 19.5 8t8.5 20q0 5 -2.5 10.5t-6 9t-9 5.5t-10.5 2zM1016 77q8 9 8 20q0 7 -4 13.5t-10.5 10.5t-14.5 4
q-11 0 -19 -8h-1v-1l-206 -201l-82 81q-9 8 -21 8t-20 -8t-8 -20q0 -5 2 -10t6 -9l83 -81l-1 -1l41 -39v1l1 -1l40 39v1zM1016 77z" />
    <glyph glyph-name="uniE60E" unicode="&#xe60e;" 
d="M794 457q-1 2 -3.5 4.5t-5 4t-5.5 3t-6 2t-6 0.5h-32q-9 0 -16.5 -4.5t-11.5 -12t-4 -15.5v-192q0 -13 9.5 -22.5t22.5 -9.5h128q5 0 10 1.5t8.5 4.5t6.5 7t5 9t2 10v48q0 5 -1.5 9.5t-4.5 8.5zM864 247h-128v192h32l96 -144v-48zM1007 332l-127 192q-14 20 -35 31.5
t-45 11.5h-128v64q0 39 -28 67t-68 28h-480q-39 0 -67 -28t-28 -67v-352q0 -40 28 -68t67 -28v-96q0 -40 28.5 -68t67.5 -28h37q11 -42 45 -69t78 -27q29 0 55 12.5t43.5 34.5t24.5 49h169q7 -27 25 -49t44 -34.5t55 -12.5t54.5 12.5t43.5 34.5t25 49h37q39 0 67 28t28 68
v192q0 29 -16 53zM96 247q-8 0 -15.5 4.5t-12 11.5t-4.5 16v352q0 4 1.5 8t3.5 7.5t5 6.5t6.5 5t7.5 3.5t8 1.5h480q13 0 22.5 -9.5t9.5 -22.5v-64v-64v-224q0 -13 -9.5 -22.5t-22.5 -9.5h-480zM352 -41q-26 0 -45 19t-19 45.5t19 45t45.5 18.5t45 -18.5t18.5 -45.5
q0 -39 -35 -57q-14 -6 -29 -7zM768 -41q-18 0 -32.5 8.5t-23 23.5t-8.5 32.5t8.5 32t23 23t32.5 8.5q26 0 45 -18.5t19 -45t-19 -45.5t-45 -19zM960 87q0 -9 -4.5 -16t-12 -11.5t-15.5 -4.5h-37q-11 42 -45 69t-78 27q-29 0 -55 -12.5t-44 -34t-25 -49.5h-169
q-10 42 -44.5 69t-78.5 27t-78 -27t-45 -69h-37q-13 0 -22.5 9.5t-9.5 22.5v96h416q26 0 48 13t35 35t13 48v224h128q17 0 26 -15l128 -191q6 -8 6 -18v-192z" />
    <glyph glyph-name="uniE60F" unicode="&#xe60f;" 
d="M588 383l-54 -54q-11 -11 0 -22q4 -4 10.5 -4t11.5 4l54 54q10 11 -0.5 22t-21.5 0zM990 793q-9 2 -16.5 0.5t-13.5 -7.5t-8 -14l-3 -9q-2 -6 -10 -21.5t-18 -30t-27 -30.5t-37 -25q-83 -42 -114 -105q-42 35 -92.5 53.5t-105.5 18.5q-127 0 -217 -89l-215 -216
q-90 -89 -90 -216.5t90 -216.5l10 -10q43 -44 99 -67t117 -23q127 0 217 90l215 215q85 85 90 204t-71 209q11 57 94 98q27 13 50 34t36 39t23 39t13 29t5 14q2 8 0 15.5t-7.5 13.5t-13.5 8zM513 -82q-72 -72 -173.5 -72t-173.5 72l-10 10q-72 72 -72 173.5t72 173.5
l162 162q18 -34 43 -70.5t68 -87.5t107 -103.5t140 -94.5zM728 134l-30 -31q-62 35 -118 78t-93 81t-69.5 80t-48.5 68t-28 50l30 30q72 72 173.5 72t173.5 -72l10 -10q72 -71 72 -173t-72 -173z" />
    <glyph glyph-name="uniE610" unicode="&#xe610;" 
d="M907 -6q0 -9 4.5 -15.5t12.5 -10.5q-2 -10 -5 -18q-4 -13 -11 -26q-2 -4 -4.5 -8t-5.5 -8q-7 3 -15.5 1.5t-14.5 -7.5q-13 -13 -7 -30l-6 -4l-6 -4q-3 -2 -6 -3q-12 -6 -24 -10q-5 -1 -9.5 -2t-9.5 -2q-3 7 -10 11.5t-16 4.5q-18 0 -25 -16q-11 2 -19 4q-13 4 -27 11
q-8 4 -16 10q7 17 -6 30t-30 6q-7 9 -12 19q-5 11 -9 23q-3 8 -5 18q3 1 5 2.5t4 3.5t3.5 4.5t2.5 4.5t1.5 5t0.5 6q0 8 -4.5 15t-12.5 10q2 10 5 18q4 14 11 27q4 7 10 15q7 -2 15.5 -0.5t14.5 7.5q13 13 6 29q9 7 19 12q6 2 12 4.5t12 4.5q4 2 9 3t10 1q1 -3 4 -6t6 -5
t7 -3.5t8 -1.5q6 0 11 2t9 6t6 8q11 -1 19 -4q15 -5 26 -11q8 -4 17 -9q-7 -17 6 -30t30 -7q6 -8 10 -15q3 -6 6 -13t5 -14l2 -6q1 -3 1.5 -6t1.5 -6q-17 -8 -17 -25v0zM865 45q-16 0 -28 11q-5 5 -8 12t-2 14q-4 3 -8.5 4.5t-8.5 3.5t-9 3q-11 -11 -26.5 -11t-26.5 11
q-14 -4 -26 -11q0 -7 -2.5 -14t-8.5 -12q-11 -11 -26 -11q-8 -12 -11 -25q11 -11 11 -26.5t-11 -26.5q2 -6 4.5 -12.5t5.5 -12.5q16 1 27 -10q6 -6 8.5 -12.5t2.5 -14.5q13 -7 26 -10q5 5 12 8t14.5 3t14.5 -3t12 -8q7 1 13.5 4t11.5 6q0 16 11 27q6 5 13 8t14 2q8 12 11 25
q-11 11 -11 26.5t11 26.5q-4 13 -10 25v0zM774 -72q-27 0 -46.5 19.5t-19.5 46.5t19.5 46t46.5 19q18 0 33.5 -9t24.5 -24t9 -32q0 -27 -19.5 -46.5t-47.5 -19.5zM774 32q-16 0 -27.5 -11t-11.5 -27t11.5 -27.5t28 -11.5t28 11.5t11.5 27.5t-11.5 27t-28.5 11zM664 -108
l-93 -1l-50 211l50 106q-33 -26 -76 -26q-11 0 -23 2.5t-21 6.5t-16.5 8t-11.5 7l-4 2l51 -106l-50 -211l-217 1q0 2 -5 0.5t-12.5 2.5t-14.5 10t-12 21t-5 37q0 28 13.5 55t34 48t52.5 44.5t61.5 42t68.5 43.5t67 46q-56 31 -96 107t-40 137q0 76 50.5 137t130 61t130 -61
t50.5 -137q0 -40 -14 -85.5t-43.5 -89.5t-68.5 -69q30 -22 85.5 -59t72.5 -48q20 15 43 20q-42 33 -128 84q48 50 77.5 124.5t29.5 134.5q0 59 -28 112.5t-82.5 88.5t-123 35t-123.5 -35t-82.5 -88.5t-27.5 -112.5q0 -60 29 -134.5t78 -124.5q-36 -22 -57.5 -35t-53 -35
t-50 -38.5t-40.5 -40.5t-34 -46t-20 -50t-8 -58q0 -27 7.5 -46.5t17.5 -28t20.5 -13.5t17.5 -5l8 -1h528q-25 19 -42 50z" />
    <glyph glyph-name="uniE611" unicode="&#xe611;" 
d="M756 569h-47v35q0 41 -29.5 70t-70.5 29h-195q-20 0 -38.5 -8t-32 -21.5t-21 -32t-7.5 -38.5v-34h-48q-28 0 -54 -11t-44.5 -29.5t-29.5 -44.5t-11 -54v-396q0 -57 41 -98t98 -41h489q58 0 98.5 41t40.5 98v396q0 38 -18.5 70t-50.5 50.5t-70 18.5zM373 603q0 17 12 29
t29 12h195q17 0 29 -11.5t12 -28.5v-35h-277v34zM837 34q0 -21 -11 -40t-29.5 -29.5t-40.5 -10.5h-489q-22 0 -40.5 10.5t-29 29.5t-10.5 40v396q0 33 23.5 56.5t56.5 23.5h489q16 0 31 -6t26 -17t17.5 -26t6.5 -31v-396zM638 298h-61v60v6q0 2 -1 4.5t-2 4.5t-2.5 4t-3.5 4
t-4 3.5t-4 2.5t-4.5 2t-5 1.5t-5.5 0.5h-67q-5 0 -10 -2t-9 -5t-7 -7t-4.5 -8.5t-1.5 -10.5v-60h-61q-13 0 -22.5 -9.5t-9.5 -22.5v-67q0 -14 9.5 -23.5t22.5 -9.5h61v-60q0 -13 9.5 -22.5t22.5 -9.5h67q7 0 13 2.5t10 6.5t6.5 10t2.5 13v60h61q5 0 10 2t9 5t7 6.5t4.5 8.5
t1.5 11v67q0 13 -9.5 22.5t-22.5 9.5z" />
    <glyph glyph-name="uniE612" unicode="&#xe612;" 
d="M882 381q12 7 19 18t7 23q0 27 -26 42l-313 175q-4 2 -7.5 3.5t-8 3t-8.5 2.5t-9 1h-9q-11 0 -21.5 -2.5t-19.5 -7.5l-313 -175q-26 -15 -26 -41.5t26 -41.5l88 -49q-1 -1 -1 -3v-233q0 -3 1 -5q2 -30 28 -54q22 -21 60 -37q75 -29 178.5 -29t178.5 29q19 8 34 17t26 20
q27 25 28 57l1 2v233q0 1 -0.5 1.5t-0.5 1.5zM516 586q4 2 11.5 2t11.5 -2l291 -164l-291 -163l-12 -2q-3 0 -6 0.5t-5 1.5l-291 163zM733 98v-2q0 -4 -5 -10.5t-17 -14t-28 -14.5q-21 -8 -45.5 -13.5t-52.5 -8.5t-57 -3q-92 0 -156 25q-16 7 -28 14.5t-17 14t-5 10.5v4v197
l164 -92q18 -10 42 -10q11 0 21.5 2.5t19.5 7.5l164 92v-199zM873.5 355q-8.5 0 -15.5 -4t-11 -11t-4 -15v-244q0 -13 8.5 -22t21.5 -9q9 0 16 4.5t11 11.5t4 15v244q0 8 -4 15t-11 11t-15.5 4z" />
    <glyph glyph-name="uniE613" unicode="&#xe613;" 
d="M541 574h-61v-60h-121v-243h121v-121h-121v-61h121v-60h61v60h121v243h-121v121h121v61h-121v60zM480 332h-60v121h60v-121zM602 271v-121h-61v121h61zM510.5 756q-92.5 0 -176.5 -36t-145 -97t-97 -145t-36 -176.5t36 -177t97 -145t145 -96.5t176.5 -36t177 36t145 96.5
t96.5 145t36 177t-36 176.5t-96.5 145t-145 97t-177 36zM511 -97q-108 0 -200 53t-145 144.5t-53 199.5t53 200t145 145t200 53q81 0 154.5 -31.5t126.5 -84.5t84.5 -127t31.5 -155t-31.5 -154.5t-84.5 -126.5t-126.5 -84.5t-154.5 -31.5z" />
    <glyph glyph-name="uniE614" unicode="&#xe614;" 
d="M590 -147h-430v894h430v-894zM202 -104h346v808h-346v-808zM864 -147h-316v702h316v-702zM590 -104h231v616h-231v-616zM79 -104h866v-43h-866v43zM181 555h388v-43h-388v43zM181 315h662v-43h-662v43zM181 75h662v-42h-662v42zM298 725h42v-852h-42v852zM425 725h42
v-852h-42v852zM685 533h42v-660h-42v660z" />
    <glyph glyph-name="uniE615" unicode="&#xe615;" 
d="M512 -210q-104 0 -198.5 40.5t-162.5 108.5t-108.5 162.5t-40.5 198.5t40.5 198.5t108.5 162.5t162.5 108.5t198.5 40.5t198.5 -40.5t162.5 -108.5t108.5 -162.5t40.5 -198.5t-40.5 -198.5t-108.5 -162.5t-162.5 -108.5t-198.5 -40.5zM512 738q-89 0 -170 -35
t-139.5 -93.5t-93.5 -139.5t-35 -170t35 -170t93.5 -139.5t139.5 -93.5t170 -35t170 35t139.5 93.5t93.5 139.5t35 170t-35 170t-93.5 139.5t-139.5 93.5t-170 35zM513 2q-76 0 -143.5 33t-114.5 93q-6 8 -7.5 17.5t2 18.5t11.5 15.5t17.5 7.5t18.5 -2.5t15 -11.5
q24 -31 56 -53t69 -33.5t76 -11.5q60 0 113 26t90 74q9 12 24 14t27 -7q8 -6 11.5 -15t2.5 -19t-8 -18q-82 -106 -214 -125q-23 -3 -46 -3zM349 296q-23 0 -39 16t-16 39v73q0 23 16 39t39 16q6 0 11.5 -1.5t10 -3.5t9 -5t8 -6.5t6.5 -8t5.5 -9.5t3.5 -10t1 -11v-73
q0 -23 -16 -39t-39 -16zM677 296q-11 0 -21 4.5t-17.5 12t-11.5 17.5t-4 21v73q0 11 4 21t11.5 17.5t17.5 12t21 4.5q23 0 39 -16t16 -39v-73q0 -15 -7.5 -27.5t-20 -20t-27.5 -7.5zM677 296z" />
    <glyph glyph-name="uniE616" unicode="&#xe616;" 
d="M865 -87h-706q-14 0 -26.5 5.5t-21.5 14.5t-14.5 22t-5.5 26v501q0 28 20 48t48 20h137v69q0 28 20 48t48 20h273q28 0 48 -20t20 -48v-69h46h114q28 0 48 -20t20 -48v-501q0 -28 -20 -48t-48 -20zM660 596q0 9 -3.5 17.5t-9.5 14.5t-14.5 9.5t-18.5 3.5h-227
q-19 0 -32.5 -13t-13.5 -32v-46h319v46zM887 459q0 10 -3.5 18t-9.5 14.5t-14.5 10t-17.5 3.5h-91h-46h-45h-319h-22h-23h-46h-68q-19 0 -32 -13.5t-13 -32.5v-182h341v57q0 14 10 24t24 10t24 -10t10 -24v-57h341v182zM887 232h-341v-12q0 -14 -10 -24t-24 -10t-24 10
t-10 24v12h-341v-228q0 -9 3.5 -17.5t9.5 -14.5t14.5 -9.5t17.5 -3.5h660q19 0 32 13t13 32v228z" />
    <glyph glyph-name="uniE617" unicode="&#xe617;" 
d="M926 25h-145q-13 0 -22.5 9t-9.5 22v372q-1 48 -20 90.5t-51 73t-75.5 48t-91.5 18.5q-98 -1 -167 -67t-71 -163v-322q2 -6 5 -15.5t15.5 -32.5t27 -40t38.5 -29t52 -7q5 16 20 24.5t30 8.5h102q26 0 44.5 -18.5t18.5 -44.5v-19q0 -27 -18.5 -45.5t-44.5 -18.5h-94
q-13 0 -25 5.5t-20.5 14.5t-13.5 21h-2h-4h-6q-3 0 -7 0.5t-7 1.5q-15 6 -30 13t-26.5 15t-22 16.5t-18.5 17t-15 16t-11.5 14t-8 11.5t-4.5 7l-2 3h-5h-145q-13 0 -22.5 9t-9.5 22v324q0 13 9.5 22t22.5 9h104v17q2 199 171 273q69 30 135 30h5h5q6 0 17 -0.5t42.5 -6.5
t60.5 -16.5t64 -33.5t60.5 -53.5t43 -80.5t18.5 -112v1v-18h104q7 0 12.5 -2.5t10 -6.5t7 -10t2.5 -12v-324q0 -13 -9.5 -22t-22.5 -9zM206 319q0 4 -1 7.5t-2.5 6t-4 4t-5.5 1.5h-53q-2 0 -3.5 -0.5t-2.5 -1.5l-4 -4q-1 -1 -2 -4v-4q-1 -3 -1 -5v-199q0 -4 1 -8t2.5 -6.5
t4 -4t5.5 -1.5h53q6 0 9.5 6t3.5 14v199zM895 319q0 4 -1 7.5t-2.5 6t-4 4t-5.5 1.5h-54q-3 0 -6 -2.5t-4.5 -7t-1.5 -9.5v-199q0 -8 3.5 -14t8.5 -6h54q6 0 9.5 6t3.5 14v199z" />
    <glyph glyph-name="uniE618" unicode="&#xe618;" 
d="M879 750h-739q-19 0 -35.5 -9.5t-26 -26t-9.5 -36.5v-753q0 -29 21 -50t50 -21h739q30 0 51 21t21 50v753q0 12 -3.5 23t-10.5 19.5t-15.5 15t-19.5 10.5t-23 4zM754 -63h-488v729h488v-729zM125 663h86v-86h-86v86zM125 535h86v-85h-86v85zM125 408h86v-85h-86v85z
M125 281h86v-85h-86v85zM125 154h86v-86h-86v86zM125 27h86v-86h-86v86zM809 662h86v-85h-86v85zM809 535h86v-85h-86v85zM809 408h86v-86h-86v86zM809 281h86v-86h-86v86zM809 153h86v-85h-86v85zM809 26h86v-85h-86v85zM402 439l2 1l238 -137q2 -1 0 -2l-238 -138h-2v1
v275z" />
    <glyph glyph-name="uniE619" unicode="&#xe619;" 
d="M721 493l-299 -299l-119 118q-13 14 -31.5 14t-32 -13.5t-13.5 -32t13 -32.5l142 -141q14 -15 41 -13q11 -1 22 2.5t18 10.5l323 322q13 13 13 32t-13 32q-9 9 -20.5 12t-23.5 0t-20 -12zM512 730q-117 0 -216 -57.5t-156.5 -156.5t-57.5 -216t57.5 -216t156.5 -156.5
t216 -57.5t216 57.5t156.5 156.5t57.5 216q0 70 -22 135.5t-61.5 118.5t-92.5 92.5t-118.5 61.5t-135.5 22zM512 -75q-102 0 -188 50.5t-136.5 136.5t-50.5 188t50.5 188t136.5 136.5t188 50.5q76 0 145.5 -30t119.5 -80t80 -119.5t30 -145.5q0 -148 -102 -257
q-100 -106 -245 -117q-14 -1 -28 -1z" />
    <glyph glyph-name="uniE61A" unicode="&#xe61a;" 
d="M768 -144h-575q-16 0 -30.5 4.5t-26.5 13.5t-21 21t-13.5 26.5t-4.5 29.5v639q0 40 28 68t68 28h447q13 0 22.5 -9.5t9.5 -22.5q0 -6 -2.5 -12t-7 -10.5t-10.5 -7t-12 -2.5h-447q-14 0 -23 -9.5t-9 -22.5v-639q0 -13 9 -22.5t23 -9.5h575q8 0 15.5 4.5t11.5 12t4 15.5
v511q0 7 3 13t7 10t10 6.5t12 2.5q9 0 16.5 -4t11.5 -11.5t4 -16.5v-511q0 -39 -28 -67t-67 -28zM580 367q-3 0 -6 0.5t-6 1.5t-5.5 3t-5.5 4q-9 9 -9 22.5t9 22.5l318 318q9 9 22.5 9t22.5 -9.5t9 -22.5t-9 -23l-318 -317q-9 -9 -22 -9zM448 367h-192q-13 0 -22 9t-9 22.5
t9 23t22 9.5h192q7 0 12.5 -3t10 -7t7 -10t2.5 -12q0 -14 -9.5 -23t-22.5 -9zM640 175h-384q-13 0 -22 9.5t-9 22.5t9 22.5t22 9.5h384q3 0 7 -1t7 -2.5t6 -3.5t5 -5t3.5 -6t2.5 -6.5t1 -7.5q0 -5 -2 -10t-4.5 -9t-6.5 -7t-9 -4.5t-10 -1.5zM640 175z" />
    <glyph glyph-name="uniE61B" unicode="&#xe61b;" 
d="M928 555q0 4 -2 8t-4 7q-17 33 -49 53t-70 20h-582q-19 0 -37 -5.5t-33.5 -15t-27.5 -22.5t-21 -30q-5 -7 -6 -15q-8 -22 -8 -45v-420q0 -55 39 -94t94 -39h582q55 0 94 39t39 94v420q0 23 -8 45zM221 582h582q7 0 13.5 -1t13 -3.5t12 -6t10 -7.5t8.5 -9l-247 -268
q-20 -22 -46 -33.5t-55 -11.5q-59 0 -101 45l-9 10q-1 2 -2 3.5t-2.5 2.5t-3.5 3l-230 249q22 27 57 27zM803 18h-582q-30 0 -51.5 21t-21.5 51v392l186 -200l-116 -116q-9 -9 -9 -21.5t9 -21.5q4 -4 9.5 -6t11.5 -2q13 0 22 8l114 115q28 -28 63.5 -42t73.5 -14
q85 0 145 64l123 -123q3 -3 6.5 -5t7.5 -2.5t8 -0.5q12 0 21 8q6 6 8 14t0 15.5t-8 13.5l-125 125l178 191v-392q0 -6 -1 -11.5t-3 -11t-4.5 -10.5t-6 -9.5t-7.5 -8.5t-8 -7.5t-9.5 -6t-10.5 -4t-11 -2.5t-12 -1z" />
    <glyph glyph-name="uniE61C" unicode="&#xe61c;" 
d="M465 -106q-21 22 -33.5 36.5t-47.5 55.5t-60 73.5t-58 81t-53.5 88.5t-35.5 85t-15 81q0 96 47.5 177t129 128.5t176.5 47.5q48 0 94 -12.5t84.5 -35.5t71 -55.5t55.5 -71.5t35.5 -84.5t12.5 -93.5q0 -169 -302 -501q-16 -16 -22 -23t-16 -12.5t-13.5 -5.5t-13 5.5
t-15.5 12.5t-21 23zM515 702q-82 0 -152.5 -41t-111.5 -111.5t-41 -152.5q0 -39 13.5 -81.5t41 -89t53 -84t67 -86t64.5 -74t62 -68.5l4 -4l4 4q40 43 63 68.5t64.5 74t67 86t53 84t40.5 89.5t13 81q0 41 -11 80.5t-30.5 73t-47.5 61.5t-61.5 48t-73 31t-81.5 11zM515 220
q-71 0 -122 50.5t-51 122t51 122.5t122 51q47 0 87 -23t63 -63t23 -87q0 -72 -50.5 -122.5t-122.5 -50.5zM515 516q-51 0 -87.5 -36.5t-36.5 -88t36.5 -88t87.5 -36.5q26 0 49 10t39.5 26.5t26.5 39.5t10 49q0 51 -36.5 87.5t-88.5 36.5zM515 502z" />
    <glyph glyph-name="uniE61D" unicode="&#xe61d;" 
d="M574 313l289 280q10 10 10 24.5t-10.5 24.5t-25 10t-25.5 -10l-289 -280l-289 280q-10 10 -25 10t-25.5 -10t-10.5 -24.5t10 -24.5l289 -280l-289 -280q-10 -10 -10 -24.5t10.5 -24.5t25.5 -10t25 10l289 280l289 -280q11 -10 25.5 -10t25 10t10.5 24.5t-10 24.5z" />
    <glyph glyph-name="uniE61E" unicode="&#xe61e;" 
d="M742 323l-416 417q-9 9 -22 9t-22 -9q-5 -5 -7 -10.5t-2 -11.5t2 -12t7 -10l394 -395l-394 -394q-9 -9 -9 -22t9 -22q4 -5 10 -7t12 -2t11.5 2t10.5 7l416 416q9 9 9 22t-9 22z" />
    <glyph glyph-name="uniE61F" unicode="&#xe61f;" 
d="M259 323l416 417q5 4 10.5 6.5t11.5 2.5t12 -2.5t10 -6.5q9 -9 9 -22t-9 -22l-395 -395l395 -394q9 -9 9 -22t-9 -22q-6 -6 -14 -8t-16 0t-14 8l-416 416q-10 9 -10 22t10 22z" />
    <glyph glyph-name="uniE620" unicode="&#xe620;" 
d="M512 802q-102 0 -195 -40t-160 -107t-107 -160t-40 -195q0 -82 25.5 -158.5t72 -138t108 -108t138 -72t158.5 -25.5q102 0 195 40t160 107t107 160t40 195t-40 195t-107 160t-160 107t-195 40zM825 423l-351 -338q-7 -7 -16 -11q-16 -12 -37 -10.5t-36 16.5l-151 150
q-8 9 -12 19.5t-4 21t4 21t12 18.5q17 17 40.5 17t39.5 -17l114 -113l317 306q6 6 14.5 10.5t17 5.5t17 0t16.5 -5.5t15 -10.5q16 -17 16 -40t-16 -40z" />
    <glyph glyph-name="uniE621" unicode="&#xe621;" 
d="M513 747q73 0 141.5 -22.5t123.5 -64t96.5 -96.5t64 -123.5t21.5 -141.5q0 -92 -35.5 -174.5t-95.5 -142.5t-143.5 -95t-176.5 -35q-90 1 -173 36.5t-142.5 95.5t-94.5 143t-35 173q0 92 35.5 174.5t95.5 142.5t143 95t175 35zM510 220q12 -12 13 -12l26 -26l27 -27
l26 -27l27 -26q14 -14 22 -14t23 14q6 6 17 17.5t14 14.5q8 7 11.5 11t5.5 8.5t2 7t-2 7.5t-6 9l-11 11l-35 35q-18 18 -42.5 42t-35.5 36q106 104 119 117t13 21t-14 22l-36 36q-8 8 -13 11t-10 3t-10 -3.5t-13 -11.5q-19 -18 -54 -52l-40 -41q-3 -4 -6.5 -7.5t-8.5 -8
t-8 -7.5q-104 106 -117 119q-21 22 -42 0q-3 -4 -6 -7l-8 -8q-4 -4 -7.5 -7t-7.5 -7t-7 -8q-7 -6 -10.5 -10.5t-5 -8.5t0.5 -8.5t5 -8.5t10 -11l115 -115q-8 -8 -8 -9l-27 -27l-28 -28l-27 -27q-15 -15 -28 -27q-22 -22 -1 -42q1 0 36 -34q12 -13 18.5 -16t13 0t18.5 15
q9 10 112 115z" />
    <glyph glyph-name="uniE622" unicode="&#xe622;" 
d="M823 -82h-623q-30 0 -51 21t-21 51v552q0 29 21 50.5t51 21.5h95v-48h-119v-600h671v600h-120v48h96q30 0 51 -21.5t21 -50.5v-552q0 -30 -21 -51t-51 -21zM631 398h96v-72h-96v72zM727 86h-96v72h96v-72zM631 278h96v-72h-96v72zM667 494q-10 0 -18 4.5t-13 13t-5 18.5
v120q0 7 3 13.5t8 11.5t11.5 8t13.5 3q15 0 25.5 -11t10.5 -25v-120q0 -8 -2.5 -14.5t-7.5 -11.5t-11.5 -7.5t-14.5 -2.5zM463 398h96v-72h-96v72zM559 86h-96v72h96v-72zM463 278h96v-72h-96v72zM415 614h192v-48h-192v48zM295 158h96v-72h-96v72zM295 278h96v-72h-96v72z
M295 398h96v-72h-96v72zM355 494q-14 0 -25 10.5t-11 25.5v120q0 9 5 17.5t13.5 13.5t18 5t18 -5t13 -13.5t4.5 -17.5v-120q0 -6 -1.5 -11.5t-5 -10t-8 -8t-10 -5t-11.5 -1.5zM355 494z" />
    <glyph glyph-name="uniE623" unicode="&#xe623;" 
d="M524 182q-49 0 -91 24.5t-66 66t-24 90.5q0 75 53 128t128 53t128 -53t53 -128q0 -85 -66 -140q-51 -40 -115 -41zM524 509q-60 0 -103 -42.5t-43 -103t43 -103t103 -42.5t103 42.5t43 103t-43 103t-103 42.5zM777 -71q-3 0 -5 0.5t-4 1.5t-4 3l-2 4q-2 2 -2.5 4t-0.5 5
q0 97 -69 166t-166.5 69t-166.5 -69t-69 -166q0 -18 -17 -18q-3 0 -6 1t-5 2.5t-3.5 3.5t-2.5 5t-1 6q0 112 79.5 191t191.5 79t191.5 -79t79.5 -191q0 -8 -5.5 -13t-12.5 -5zM441 554zM61 17q-5 0 -9 2.5t-6.5 6.5t-2.5 9q0 88 52 159t134 98q-22 11 -39.5 28t-30 37.5
t-19.5 44.5t-7 50q0 49 24.5 90.5t66 66t90.5 24.5q86 0 141 -67q4 -6 3.5 -13.5t-6.5 -11.5q-3 -3 -6 -4t-6.5 -0.5t-6.5 2t-6 4.5q-43 54 -113 54q-60 0 -103 -42.5t-43 -103t43 -103t103 -42.5q5 0 9 -2.5t6.5 -6.5t2.5 -9t-2.5 -9t-6.5 -6.5t-9 -2.5q-97 0 -166 -69
t-69 -166q0 -5 -2.5 -9t-6.5 -6.5t-9 -2.5zM750 220l-8 2q-12 5 -10 18l11 76h-1q-7 0 -12 5.5t-5 12.5q0 5 2 9t6 6.5t9 2.5h21q8 0 14 -6q2 -3 3.5 -7t0.5 -7l-6 -43l56 58q6 5 13 5h101v284h-413v-54q0 -5 -2 -9t-6.5 -6t-8.5 -2q-8 0 -13 5t-5 12v71q0 8 5 13t13 5h448
q7 0 12.5 -5t5.5 -13v-318q0 -5 -2.5 -9t-6.5 -6.5t-9 -2.5h-112l-89 -92q-5 -5 -12 -5z" />
    <glyph glyph-name="uniE624" unicode="&#xe624;" 
d="M424 747q-100 0 -178 -44q1 -2 1 -5v-4q0 -2 -1 -5t-1 -5q-1 -6 1 -12t7.5 -13.5t8.5 -11t13.5 -13.5t13.5 -13q110 -110 133 -136q-9 -8 -43.5 -43t-52.5 -52q-24 23 -71 71.5t-62 63.5q-4 4 -11 11.5t-12 12.5t-11 10t-11 8t-19.5 1t-19.5 -1q-28 -54 -38.5 -107
t-3.5 -109q12 -109 89 -195q41 -46 91 -72.5t103 -36.5q99 -19 196 15q21 -20 58 -56t54 -53q5 -6 24.5 -26.5t28.5 -29t25.5 -20t30.5 -16.5q48 -18 102.5 2t78.5 76q15 34 11 73q-4 41 -25 67q-8 12 -56 58v0q-5 4 -11 10t-11.5 11t-11.5 10l-11 12l-11 11l-27 27l-24 24
q-5 5 -16.5 17.5t-19.5 20t-16 11.5q-22 10 -40.5 -9.5t-8.5 -40.5q2 -6 8 -13.5t12 -12.5t14.5 -13t13.5 -13q17 -17 52.5 -51.5t51.5 -51.5l5 -5h1q1 -2 7 -8.5t10 -9.5q34 -36 38 -46v0l1 -1q6 -21 -1.5 -41.5t-24 -32.5t-37.5 -15.5t-40 8.5q-5 3 -9.5 8t-10.5 11.5
t-9 10.5q-19 18 -88.5 86.5t-102.5 101.5q-50 -27 -100.5 -36.5t-104 2t-101.5 45.5q-41 29 -66.5 67.5t-38.5 81.5q-25 78 -3 152l1 -1l1 -1l1 -1l1 -1l1 -1l1 -1v-1l1 -1l1 -1l1 -1l1 -1l1 -1l1 -1l1 -1l1 -1l1 -1l1 -1l1 -1l1 -1l1 -1l1 -1l1 -1l1 -1l1 -1l1 -1l1 -1
l1 -1l1 -1l1 -1l1 -1l1 -1l1 -1l1 -1l1 -1l1 -1l1 -1l1 -1l1 -1l1 -1l1 -1h1l1 -1l1 -1l1 -1l1 -1l1 -1l1 -1l1 -1l1 -1l1 -1l1 -1l1 -1l1 -1l1 -1l1 -1l1 -1l1 -1l1 -1l1 -1l1 -1l1 -1l1 -1l1 -1l1 -1l1 -1l1 -1l1 -1l1 -1l1 -1l1 -1l1 -1l1 -1l1 -1l1 -1l1 -1l1 -1l1 -1
l1 -1l1 -1l1 -1l1 -1l1 -1l1 -1l1 -1l1 -1l1 -1l1 -1l1 -1l1 -1l1 -1l1 -1l1 -1l1 -1l1 -1l1 -1l1 -1l1 -1l1 -1l1 -1l1 -1l1 -1l1 -1l1 -1l1 -1l1 -1l1 -1l1 -1l1 -1l1 -1l1 -1l1 -1l1 -1l1 -1l1 -1l1 -1l1 -1l1 -1l1 -1l1 -1l1 -1l1 -1l1 -1l1 -1l1 -2q5 -4 13.5 -13.5
t14.5 -15.5t13 -10q5 -2 10.5 -3t11.5 1t10 4t11 8t10 9l12 11l11 12l1 1l1 1l1 1l1 1l1 1l1 1l1 1l1 1l1 1l1 1l1 1l1 1l1 1l1 1l1 1l1 2l1 1l1 1l1 1l1 1l1 1l1 1l1 1l1 1l1 1l1 1l1 1l1 1l1 1l1 1l1 1l1 1l1 1l1 1l1 1l1 1l1 1l1 1l1 1l1 1l1 1l2 1q4 4 27 25t37 36.5
t17 26.5q7 21 -23 52q-3 2 -8 7l-5 6q-73 73 -125 126q142 33 249 -56q22 -19 39.5 -41t29 -44t19 -45.5t10.5 -45t2 -41.5v-7q0 -3 -0.5 -5.5t-0.5 -5.5v-6q0 -3 1 -6q10 -22 32.5 -25t36.5 17q5 8 5 44q0 122 -83 223q-56 66 -125.5 95.5t-140.5 29.5z" />
    <glyph glyph-name="uniE625" unicode="&#xe625;" 
d="M664 472l274 1v13h1h-1v2l1 259h-24l-1 -215q-19 32 -44 60.5t-53.5 52.5t-61.5 43t-69 32t-75 20t-79 7q-91 0 -173.5 -35.5t-142.5 -95.5t-95.5 -142.5t-35.5 -173.5t35.5 -173.5t95.5 -142.5t142.5 -95.5t173.5 -35.5q134 0 243.5 72t163.5 189h-34q-34 -69 -90 -121
t-129.5 -81t-153.5 -29q-113 0 -209 56t-152 152t-56 209t56 209t152 152t209 56q118 0 216 -60t152 -160l-236 -1v-24z" />
    <glyph glyph-name="uniE626" unicode="&#xe626;" 
d="M535 -195v460h458q5 0 9 2t7 5t5 7t2 9q0 9 -6.5 16t-16.5 7h-458v460q0 6 -3 11.5t-8.5 8.5t-11.5 3q-9 0 -16 -7t-7 -16v-460h-459q-9 0 -16 -7t-7 -16t7 -16t16 -7h459v-460q0 -3 0.5 -5.5t2.5 -4.5l2 -4q2 -2 4 -3l4 -4q2 -1 4.5 -1.5t5.5 -0.5q10 0 16.5 7t6.5 16z
" />
    <glyph glyph-name="uniE627" unicode="&#xe627;" 
d="M512 748q93 0 174.5 -35t142.5 -96.5t96 -142.5q18 -41 26.5 -84.5t8.5 -89.5q0 -93 -35 -174.5t-96 -142.5t-142.5 -96t-174.5 -35t-174.5 35t-142.5 96t-96 142.5t-35 174.5q0 92 35 173.5t96 143t142.5 96.5t174.5 35zM521 62q10 0 18.5 3.5t15.5 10t10.5 14.5t3.5 18
q0 20 -14 34q-7 6 -15.5 9.5t-18.5 3.5q-21 0 -34.5 -13.5t-13.5 -33.5q0 -19 14 -33q7 -6 15.5 -9.5t18.5 -3.5zM567 249q0 9 13 22t29 30q2 3 4.5 5.5t4.5 5.5l4 6q2 3 4.5 6t4.5 6l4 8l4 6q6 12 9.5 26.5t3.5 31.5q0 22 -9 46q-4 12 -11 23t-17 21q-19 20 -49.5 33
t-72.5 13q-50 0 -80 -17q-14 -8 -25.5 -18.5t-19 -22.5t-12.5 -24.5t-7 -25.5q-5 -26 -5 -43q0 -9 3.5 -14.5t10.5 -9.5q14 -7 31 -6q6 1 11 2t10 3t10 5q14 8 14 23q0 9 1 20t7.5 21t18.5 16.5t33 6.5q11 0 20.5 -2t18 -6t14.5 -10q20 -18 20 -42q0 -20 -14 -38
q-7 -10 -14.5 -18.5t-15.5 -16.5q-6 -5 -11 -9l-10 -10l-10 -8q-14 -12 -14 -19v-50q0 -4 3.5 -6t10.5 -4q14 -3 30.5 -2.5t30.5 4t14 10.5v22z" />
    <glyph glyph-name="uniE628" unicode="&#xe628;" 
d="M867 185q10 10 10 24.5t-10 24.5q-7 7 -16 9.5t-18 0t-15 -9.5l-1 1l-264 -264q-61 -49 -141 -45t-137 61t-61 137t45 141l384 395q39 25 86 20t81 -38.5t38.5 -80.5t-20.5 -86l-344 -344q-1 -2 -2 -3t-2 -2.5t-2 -2.5q-14 -14 -33.5 -14t-33 14t-13.5 33.5t13 32.5
q4 4 8 7l271 272l3 3q10 11 10 25.5t-10 24.5q-7 7 -16 9t-18 0t-16 -9v-1h-1l-273 -274q-2 -1 -4 -3l-4 -4q-34 -34 -34 -83t34.5 -83.5t83 -34.5t83.5 35l7 7l343 345q30 39 38.5 87.5t-6 96t-50.5 83.5t-83.5 50.5t-96 6t-87.5 -38.5l-384 -394q-70 -83 -66 -192.5
t82 -186.5q76 -77 184.5 -82t190.5 63h1z" />
  </font>
</defs>
</svg>
